<svg width="28" height="30" viewBox="0 0 28 30" fill="none" xmlns="http://www.w3.org/2000/svg">
<g clip-path="url(#clip0_46_421)">
<path d="M7.733 24.6004L8.15632 24.8513C9.93508 25.9069 11.9744 26.4652 14.054 26.4663H14.0586C20.4453 26.4663 25.6434 21.2695 25.6458 14.8823C25.6468 11.7868 24.4428 8.87649 22.255 6.68675C20.0671 4.49741 17.1582 3.29087 14.0627 3.28958C7.67111 3.28958 2.47305 8.48564 2.47064 14.8728C2.46979 17.0615 3.08207 19.1932 4.24216 21.0374L4.51789 21.4757L3.34703 25.7503L7.733 24.6004ZM0 29.0615L1.9778 21.8396C0.757869 19.726 0.116098 17.3283 0.117103 14.8722C0.120076 7.18778 6.37367 0.936035 14.0589 0.936035C17.788 0.937643 21.2883 2.389 23.9205 5.02336C26.5524 7.65768 28.0014 11.1594 28.0002 14.8834C27.9969 22.5674 21.742 28.8203 14.0589 28.8203C14.0583 28.8203 14.0591 28.8203 14.0589 28.8203H14.0529C11.7197 28.8195 9.42708 28.2343 7.39085 27.1237L0 29.0615Z" fill="white"/>
<path d="M0.597217 14.8791C0.596374 17.2501 1.21588 19.5648 2.39386 21.6055L0.484375 28.5774L7.61901 26.7066C9.58475 27.7778 11.798 28.3433 14.0504 28.344H14.0562C21.4737 28.344 27.5113 22.3081 27.5145 14.8897C27.5159 11.2946 26.1172 7.91462 23.5761 5.37124C21.0353 2.82823 17.6563 1.42698 14.0556 1.42529C6.63765 1.42529 0.600432 7.4604 0.597217 14.8791ZM14.0562 28.344C14.0559 28.344 14.0561 28.344 14.0562 28.344V28.344Z" fill="url(#paint0_linear_46_421)"/>
<path d="M0.116614 14.8755C0.11577 17.3317 0.757542 19.7296 1.97747 21.843L-0.000488281 29.0644L7.39013 27.1266C9.42648 28.2371 11.719 28.8223 14.0522 28.8233H14.0581C21.7413 28.8233 27.9963 22.5703 27.9995 14.8863C28.0008 11.1621 26.5517 7.66049 23.9198 5.02629C21.2874 2.3921 17.7874 0.940572 14.0581 0.938965C6.37335 0.938965 0.119595 7.19071 0.11638 14.8751M4.51756 21.4789L4.24168 21.0407C3.08159 19.1963 2.46931 17.0647 2.47015 14.8761C2.47269 8.48937 7.67063 3.29291 14.0622 3.29291C17.1574 3.29411 20.0664 4.50078 22.2546 6.69007C24.4424 8.87953 25.6463 11.7901 25.6455 14.8852C25.6427 21.2724 20.4446 26.4692 14.0578 26.4692H14.0533C11.9737 26.468 9.93424 25.9098 8.1556 24.8544L7.73228 24.6034L3.34638 25.7533L4.51756 21.4789ZM14.0581 28.8233C14.0578 28.8233 14.058 28.8233 14.0581 28.8233V28.8233Z" fill="url(#paint1_linear_46_421)"/>
<path fill-rule="evenodd" clip-rule="evenodd" d="M10.5737 9.04802C10.3127 8.46789 10.0381 8.45628 9.78988 8.44607C9.58673 8.43743 9.35438 8.438 9.12231 8.438C8.88995 8.438 8.51256 8.52518 8.19345 8.87377C7.87404 9.22238 6.97412 10.065 6.97412 11.7789C6.97412 13.4928 8.22254 15.1489 8.39647 15.3816C8.5707 15.6138 10.8064 19.2433 14.3468 20.6395C17.2895 21.7999 17.8883 21.5691 18.527 21.511C19.1656 21.453 20.588 20.6686 20.8782 19.8551C21.1685 19.0418 21.1685 18.3446 21.0815 18.199C20.9944 18.0539 20.7621 17.9667 20.4137 17.7926C20.0653 17.6184 18.3527 16.7756 18.0335 16.6593C17.7141 16.5432 17.4818 16.4852 17.2495 16.834C17.0173 17.1823 16.3501 17.9667 16.1468 18.199C15.9437 18.4318 15.7404 18.4609 15.392 18.2866C15.0436 18.1119 13.9216 17.7444 12.5907 16.5578C11.5551 15.6345 10.856 14.4942 10.6527 14.1455C10.4496 13.7972 10.6311 13.6085 10.8057 13.4348C10.9622 13.2787 11.1542 13.0281 11.3284 12.8248C11.5022 12.6213 11.5602 12.4762 11.6763 12.2438C11.7926 12.0113 11.7344 11.8078 11.6474 11.6336C11.5602 11.4594 10.8835 9.73685 10.5737 9.04802Z" fill="white"/>
</g>
<defs>
<linearGradient id="paint0_linear_46_421" x1="13.9996" y1="28.5746" x2="13.9996" y2="1.42244" gradientUnits="userSpaceOnUse">
<stop stop-color="#20B038"/>
<stop offset="1" stop-color="#60D66A"/>
</linearGradient>
<linearGradient id="paint1_linear_46_421" x1="13.9997" y1="29.0652" x2="13.9997" y2="0.93981" gradientUnits="userSpaceOnUse">
<stop stop-color="#F9F9F9"/>
<stop offset="1" stop-color="white"/>
</linearGradient>
<clipPath id="clip0_46_421">
<rect width="28.0005" height="28.1283" fill="white" transform="translate(-0.000488281 0.936035)"/>
</clipPath>
</defs>
</svg>
